<svg xmlns="http://www.w3.org/2000/svg" width="439" height="599" viewBox="0 0 439 599" role="img" aria-label="Vectorized FIFA 2026 logo from uploaded image">
<rect width="100%" height="100%" fill="#000000"/>
<g shape-rendering="geometricPrecision">
<path fill="#fefefe" d="M 68 343 L 61 357 L 62 361 L 58 365 L 56 378 L 57 484 L 61 498 L 65 500 L 63 503 L 68 511 L 74 514 L 72 517 L 75 520 L 78 518 L 82 528 L 84 528 L 85 531 L 91 530 L 91 535 L 94 535 L 95 538 L 98 539 L 101 537 L 101 541 L 116 547 L 131 549 L 314 548 L 326 545 L 329 542 L 331 543 L 333 539 L 344 536 L 343 533 L 349 531 L 352 525 L 355 528 L 354 525 L 356 522 L 360 522 L 363 514 L 368 511 L 368 505 L 374 501 L 375 498 L 373 495 L 376 494 L 375 490 L 378 487 L 377 485 L 380 479 L 379 451 L 374 448 L 378 447 L 371 430 L 367 427 L 366 422 L 361 418 L 358 412 L 356 413 L 354 411 L 355 409 L 346 403 L 344 405 L 342 400 L 326 392 L 324 394 L 320 391 L 315 393 L 315 389 L 306 389 L 304 387 L 308 384 L 380 384 L 379 369 L 376 367 L 377 361 L 374 361 L 374 354 L 372 350 L 370 351 L 368 348 L 370 346 L 364 343 L 361 335 L 356 334 L 357 330 L 354 326 L 350 325 L 347 321 L 343 321 L 343 318 L 339 319 L 337 315 L 332 312 L 328 314 L 327 311 L 309 306 L 304 306 L 303 308 L 302 306 L 255 306 L 254 309 L 251 308 L 247 324 L 251 347 L 250 354 L 251 357 L 255 359 L 254 364 L 259 369 L 267 370 L 266 372 L 263 371 L 260 373 L 264 378 L 264 385 L 271 390 L 270 393 L 273 394 L 275 404 L 279 406 L 279 415 L 285 426 L 279 430 L 154 429 L 152 423 L 154 422 L 153 418 L 156 417 L 155 413 L 163 398 L 159 394 L 166 392 L 166 390 L 170 388 L 170 382 L 173 381 L 172 376 L 177 369 L 178 353 L 183 351 L 185 343 L 183 334 L 184 312 L 182 306 L 131 306 L 130 308 L 121 307 L 120 310 L 113 309 L 107 311 L 105 315 L 101 314 L 94 320 L 89 321 L 89 325 L 78 331 L 74 338 Z"/>
<path fill="#fefefe" d="M 70 79 L 71 83 L 65 88 L 65 93 L 62 94 L 58 104 L 56 123 L 127 123 L 132 126 L 94 139 L 94 142 L 88 143 L 88 145 L 84 147 L 84 150 L 80 150 L 75 157 L 76 160 L 72 160 L 64 171 L 65 176 L 62 176 L 59 183 L 56 201 L 57 288 L 182 288 L 176 273 L 173 271 L 174 269 L 171 268 L 171 257 L 166 248 L 167 239 L 165 238 L 163 211 L 160 211 L 153 189 L 154 182 L 151 178 L 154 165 L 156 164 L 156 144 L 159 143 L 159 138 L 161 137 L 159 132 L 164 130 L 166 123 L 181 107 L 206 95 L 208 97 L 233 97 L 257 108 L 261 113 L 264 113 L 268 119 L 272 120 L 271 123 L 275 127 L 280 143 L 290 152 L 292 160 L 291 171 L 289 172 L 288 184 L 283 195 L 282 201 L 284 206 L 280 211 L 279 219 L 275 223 L 275 232 L 272 234 L 271 242 L 269 243 L 266 258 L 267 263 L 265 264 L 260 286 L 256 288 L 379 288 L 381 285 L 381 210 L 307 210 L 304 208 L 313 203 L 315 205 L 325 202 L 326 198 L 328 200 L 331 197 L 333 199 L 337 197 L 340 192 L 343 193 L 344 190 L 349 190 L 352 185 L 355 184 L 355 180 L 362 177 L 361 173 L 369 166 L 370 161 L 373 160 L 373 156 L 375 155 L 375 151 L 373 150 L 375 149 L 374 146 L 379 143 L 380 115 L 378 104 L 373 97 L 374 93 L 368 90 L 370 86 L 367 87 L 367 81 L 362 81 L 360 73 L 357 72 L 355 66 L 352 67 L 347 60 L 344 61 L 340 58 L 341 56 L 338 60 L 338 55 L 335 53 L 332 54 L 331 51 L 319 47 L 315 49 L 313 46 L 130 45 L 122 47 L 121 49 L 120 47 L 116 47 L 112 50 L 105 51 L 104 54 L 99 54 L 97 59 L 89 60 L 89 63 L 82 66 L 83 68 L 75 73 L 76 76 Z"/>
<path fill="#391b05" d="M 234 282 L 231 286 L 227 285 L 226 283 L 220 286 L 221 288 L 219 294 L 216 295 L 202 325 L 195 336 L 185 360 L 205 337 L 205 335 L 208 332 L 208 329 L 211 328 L 211 332 L 213 332 L 221 322 L 220 320 L 212 329 L 211 326 L 214 324 L 220 312 L 229 299 L 232 290 L 236 288 Z"/>
<path fill="#b38b47" d="M 204 109 L 188 110 L 186 111 L 185 115 L 182 114 L 181 118 L 177 121 L 169 139 L 170 149 L 168 153 L 176 143 L 182 143 L 187 147 L 187 144 L 185 142 L 191 135 L 193 135 L 192 132 L 195 131 L 195 129 L 190 128 L 184 118 L 187 116 L 192 123 L 194 120 L 199 118 L 201 115 L 200 112 L 204 111 Z"/>
<path fill="#082d17" d="M 162 410 L 162 416 L 168 418 L 181 409 L 185 409 L 187 411 L 184 414 L 174 418 L 203 417 L 204 415 L 203 413 L 199 413 L 203 410 L 203 408 L 194 408 L 192 411 L 190 411 L 189 406 L 165 406 Z"/>
<path fill="#cead6b" d="M 211 106 L 213 111 L 221 111 L 231 115 L 232 118 L 243 116 L 245 120 L 249 122 L 253 127 L 255 127 L 257 124 L 259 125 L 263 134 L 263 147 L 261 151 L 266 146 L 266 139 L 264 137 L 267 133 L 269 133 L 267 132 L 265 134 L 263 131 L 264 128 L 267 129 L 266 126 L 264 127 L 258 122 L 251 120 L 232 109 L 222 106 Z"/>
<path fill="#ead7ab" d="M 179 153 L 173 157 L 172 167 L 175 174 L 178 177 L 183 178 L 185 177 L 185 168 L 187 160 L 182 154 Z"/>
<path fill="#391b05" d="M 219 145 L 216 147 L 218 153 L 214 155 L 217 157 L 215 161 L 213 159 L 209 159 L 210 162 L 208 163 L 207 160 L 203 158 L 203 175 L 206 170 L 208 172 L 207 177 L 211 176 L 217 167 L 217 163 L 220 160 L 221 149 Z"/>
<path fill="#12462d" d="M 210 380 L 210 378 L 209 377 L 210 373 L 208 371 L 206 371 L 205 372 L 195 372 L 195 375 L 194 376 L 192 375 L 192 373 L 188 373 L 187 375 L 181 374 L 181 375 L 183 376 L 183 379 L 189 379 L 192 377 L 193 378 L 196 378 L 199 381 L 207 381 L 209 382 Z"/>
<path fill="#082d17" d="M 231 406 L 231 410 L 234 410 L 236 412 L 236 414 L 233 416 L 232 418 L 236 418 L 239 415 L 243 413 L 245 413 L 246 414 L 246 417 L 247 417 L 250 413 L 252 413 L 253 412 L 251 406 Z"/>
<path fill="#e1ddd6" d="M 208 100 L 208 101 L 210 102 L 212 102 L 213 101 L 215 102 L 217 101 L 222 101 L 223 102 L 227 102 L 228 103 L 235 104 L 239 107 L 242 107 L 244 109 L 247 110 L 252 114 L 254 114 L 256 116 L 258 115 L 258 113 L 252 110 L 249 107 L 238 102 L 235 102 L 232 100 L 225 100 L 224 99 L 211 99 L 210 100 Z"/>
<path fill="#532f0d" d="M 235 149 L 235 150 L 238 150 L 239 151 L 235 154 L 235 155 L 237 155 L 238 156 L 238 163 L 239 165 L 237 168 L 239 172 L 239 175 L 242 177 L 242 179 L 244 182 L 247 184 L 246 177 L 244 177 L 243 176 L 244 171 L 242 167 L 242 161 L 240 159 L 242 153 L 240 152 L 241 150 L 239 149 Z"/>
<path fill="#12462d" d="M 232 372 L 232 373 L 233 373 L 237 378 L 236 381 L 242 381 L 243 380 L 244 381 L 246 381 L 246 378 L 247 377 L 253 376 L 254 378 L 252 380 L 252 382 L 253 383 L 258 382 L 258 379 L 257 378 L 258 376 L 257 376 L 256 374 L 251 374 L 250 375 L 249 374 L 245 374 L 243 375 L 242 374 L 238 374 L 237 373 Z"/>
<path fill="#7e561f" d="M 197 298 L 196 298 L 196 303 L 194 304 L 193 306 L 192 306 L 191 304 L 189 304 L 190 316 L 191 316 L 192 314 L 194 317 L 193 319 L 189 318 L 189 320 L 191 320 L 192 321 L 191 326 L 193 326 L 194 324 L 194 322 L 193 321 L 195 319 L 195 315 L 196 314 L 200 314 L 202 315 L 203 310 L 205 308 L 204 302 L 203 302 L 202 311 L 200 313 L 197 313 L 196 312 L 199 306 L 196 307 L 195 309 L 193 308 L 193 306 L 196 304 L 198 304 Z"/>
<path fill="#7e561f" d="M 189 253 L 189 255 L 186 257 L 186 258 L 188 259 L 187 261 L 188 263 L 186 264 L 186 265 L 188 266 L 188 264 L 189 263 L 191 263 L 195 269 L 193 272 L 197 273 L 198 272 L 197 269 L 199 268 L 199 265 L 197 263 L 195 263 L 191 258 L 194 256 L 194 254 Z"/>
<path fill="#ead7ab" d="M 208 102 L 208 104 L 225 104 L 226 105 L 230 105 L 233 107 L 235 107 L 237 109 L 239 109 L 248 115 L 252 116 L 256 119 L 258 119 L 262 121 L 262 119 L 260 119 L 259 117 L 256 117 L 254 115 L 252 115 L 242 108 L 239 108 L 235 105 L 232 105 L 227 103 L 223 103 L 222 102 L 219 102 L 218 103 L 215 103 L 214 102 L 210 103 Z"/>
<path fill="#b38b47" d="M 242 199 L 243 201 L 243 206 L 246 214 L 248 213 L 249 215 L 252 214 L 253 216 L 255 216 L 254 211 L 255 210 L 258 210 L 259 211 L 260 216 L 261 216 L 261 214 L 263 213 L 262 211 L 259 211 L 258 210 L 258 208 L 255 208 L 254 209 L 252 208 L 252 210 L 250 212 L 248 210 L 249 205 L 244 202 L 244 200 Z"/>
<path fill="#082d17" d="M 263 406 L 263 411 L 266 414 L 269 414 L 271 415 L 273 418 L 274 418 L 275 417 L 275 415 L 274 414 L 274 411 L 272 406 Z"/>
<path fill="#cead6b" d="M 214 230 L 211 232 L 211 234 L 212 235 L 211 237 L 211 239 L 212 240 L 211 244 L 213 243 L 215 246 L 214 247 L 209 246 L 208 248 L 207 246 L 205 246 L 205 247 L 208 249 L 210 249 L 211 248 L 212 249 L 212 251 L 213 251 L 215 247 L 217 246 L 217 238 L 213 236 L 215 233 Z"/>
<path fill="#532f0d" d="M 232 269 L 231 269 L 231 271 L 230 272 L 226 273 L 222 281 L 222 284 L 223 284 L 225 281 L 230 285 L 231 285 L 231 283 L 233 281 L 237 283 L 236 279 L 234 278 L 233 276 L 232 276 L 232 278 L 230 280 L 228 280 L 227 279 L 227 277 L 226 276 L 228 274 L 230 274 L 233 271 Z"/>
<path fill="#c09b56" d="M 243 121 L 243 123 L 247 123 L 249 125 L 248 130 L 250 130 L 251 132 L 253 131 L 256 135 L 258 135 L 259 136 L 259 138 L 260 139 L 260 146 L 262 147 L 262 144 L 261 143 L 262 134 L 259 134 L 255 131 L 256 128 L 253 128 L 249 123 Z"/>
<path fill="#747b77" d="M 214 406 L 215 408 L 212 412 L 219 416 L 223 411 L 223 406 Z"/>
<path fill="#3c6e58" d="M 211 372 L 211 374 L 210 375 L 211 381 L 216 381 L 220 379 L 221 381 L 224 381 L 223 374 L 222 373 L 220 373 L 219 374 L 219 377 L 216 379 L 214 377 L 214 373 L 213 372 Z"/>
<path fill="#391b05" d="M 223 340 L 222 340 L 218 346 L 216 346 L 214 344 L 212 344 L 211 345 L 211 347 L 205 352 L 205 354 L 207 354 L 208 352 L 213 349 L 218 349 L 221 346 L 225 345 L 225 344 L 223 343 Z"/>
<path fill="#6a4417" d="M 195 365 L 193 365 L 191 362 L 187 362 L 186 365 L 182 367 L 182 370 L 193 369 Z"/>
<path fill="#391b05" d="M 240 315 L 237 315 L 227 325 L 227 326 L 217 335 L 216 337 L 217 341 L 218 341 L 218 337 L 223 333 L 227 327 L 232 322 L 238 319 L 240 317 Z"/>
<path fill="#082d17" d="M 177 379 L 177 381 L 178 382 L 182 382 L 183 383 L 188 383 L 189 381 L 191 382 L 193 382 L 194 381 L 197 382 L 197 380 L 196 379 L 193 379 L 192 378 L 189 380 L 187 380 L 186 381 L 184 380 L 183 381 L 182 380 L 182 376 L 179 375 Z"/>
<path fill="#c09b56" d="M 213 252 L 214 259 L 215 260 L 213 261 L 214 264 L 212 266 L 211 270 L 215 273 L 217 272 L 217 270 L 216 269 L 216 267 L 214 266 L 215 264 L 214 261 L 215 260 L 218 260 L 219 261 L 219 263 L 220 263 L 221 261 L 218 259 L 217 257 L 218 255 L 215 254 L 214 252 Z"/>
<path fill="#6a4417" d="M 204 148 L 202 148 L 198 154 L 198 159 L 197 160 L 197 164 L 196 165 L 196 170 L 197 171 L 197 173 L 199 173 L 198 171 L 199 170 L 199 168 L 201 167 L 201 166 L 199 165 L 200 163 L 200 154 L 203 151 Z"/>
<path fill="#8f672e" d="M 162 151 L 163 154 L 161 157 L 161 165 L 163 170 L 161 171 L 160 174 L 161 174 L 163 171 L 165 174 L 166 178 L 170 180 L 168 175 L 166 174 L 166 172 L 164 170 L 163 155 L 165 153 L 165 151 Z"/>
<path fill="#532f0d" d="M 182 229 L 181 232 L 184 234 L 184 236 L 188 236 L 189 238 L 190 238 L 191 240 L 194 242 L 194 243 L 197 243 L 188 231 L 185 231 Z"/>
<path fill="#dabf88" d="M 210 234 L 207 236 L 205 235 L 205 237 L 206 238 L 203 242 L 205 245 L 210 245 L 210 243 L 211 242 L 211 240 L 210 239 L 211 235 Z"/>
<path fill="#a27837" d="M 183 389 L 178 389 L 175 391 L 175 396 L 174 397 L 172 397 L 172 399 L 175 400 L 175 399 L 177 398 L 179 395 L 182 394 Z"/>
<path fill="#532f0d" d="M 215 344 L 216 345 L 218 345 L 223 338 L 224 339 L 224 343 L 230 343 L 230 341 L 228 342 L 226 341 L 227 339 L 227 335 L 224 337 L 221 335 L 219 337 L 219 341 L 218 342 L 216 342 Z"/>
<path fill="#ead7ab" d="M 221 115 L 223 121 L 225 121 L 226 122 L 224 123 L 225 126 L 228 127 L 228 124 L 230 119 L 226 116 Z"/>
<path fill="#6a4417" d="M 197 296 L 199 301 L 199 305 L 200 306 L 197 312 L 200 312 L 201 311 L 201 307 L 202 306 L 202 302 L 203 301 L 202 299 L 204 298 L 204 297 Z"/>
<path fill="#12462d" d="M 190 407 L 191 410 L 192 410 L 194 407 L 203 407 L 205 409 L 202 411 L 202 412 L 205 414 L 205 416 L 206 417 L 208 417 L 208 414 L 205 411 L 208 409 L 207 406 L 191 406 Z"/>
<path fill="#3c6e58" d="M 208 406 L 209 409 L 207 412 L 209 414 L 209 416 L 211 417 L 217 417 L 216 415 L 211 412 L 213 409 L 213 407 L 212 406 Z"/>
<path fill="#b38b47" d="M 255 136 L 256 138 L 256 143 L 255 144 L 251 143 L 251 145 L 254 147 L 254 149 L 253 150 L 254 153 L 257 153 L 257 149 L 255 144 L 256 143 L 257 144 L 259 144 L 259 139 L 258 138 L 258 136 Z"/>
<path fill="#a27837" d="M 230 151 L 228 151 L 228 153 L 226 155 L 224 154 L 224 156 L 223 157 L 224 160 L 222 161 L 222 162 L 227 161 L 227 159 L 228 158 L 230 158 L 231 159 L 231 162 L 232 162 L 232 159 L 230 158 L 231 157 L 231 152 Z"/>
<path fill="#a27837" d="M 198 140 L 194 140 L 193 143 L 191 144 L 192 146 L 190 149 L 190 151 L 192 151 L 193 152 L 193 155 L 194 155 L 195 153 L 194 151 L 192 150 L 193 149 L 195 149 L 194 147 L 198 144 Z"/>
<path fill="#6a4417" d="M 241 145 L 240 146 L 240 149 L 242 148 L 243 149 L 243 153 L 244 154 L 242 155 L 243 167 L 244 167 L 245 160 L 247 159 L 246 156 L 244 155 L 245 154 L 245 149 L 244 149 L 243 148 L 243 146 Z"/>
<path fill="#a27837" d="M 228 261 L 224 261 L 223 266 L 222 267 L 222 271 L 219 273 L 217 278 L 214 280 L 214 281 L 217 280 L 221 274 L 223 275 L 223 273 L 224 272 L 223 270 L 226 267 L 226 265 L 225 264 L 228 262 Z"/>
<path fill="#dabf88" d="M 268 128 L 268 129 L 265 131 L 265 133 L 266 133 L 267 131 L 269 131 L 270 132 L 270 135 L 272 138 L 272 140 L 274 142 L 274 147 L 275 149 L 278 148 L 277 143 L 274 139 L 271 132 L 269 131 L 269 128 Z"/>
<path fill="#dabf88" d="M 210 122 L 211 127 L 214 127 L 215 124 L 217 123 L 221 128 L 223 128 L 221 124 L 218 122 L 219 121 L 218 119 L 214 122 L 212 121 Z"/>
<path fill="#c09b56" d="M 214 225 L 212 224 L 211 226 L 209 225 L 208 227 L 206 227 L 205 226 L 198 226 L 197 228 L 198 229 L 200 229 L 202 227 L 203 228 L 208 228 L 210 231 L 211 231 L 214 228 Z"/>
<path fill="#3c6e58" d="M 227 406 L 224 406 L 224 411 L 221 414 L 220 417 L 226 417 L 227 416 Z"/>
<path fill="#7e561f" d="M 162 173 L 161 177 L 165 179 L 169 183 L 168 185 L 170 190 L 175 191 L 172 187 L 172 185 L 169 181 L 165 178 L 164 174 Z"/>
<path fill="#f6f4f0" d="M 225 98 L 225 99 L 232 99 L 235 101 L 238 101 L 241 103 L 243 103 L 258 112 L 257 109 L 253 108 L 250 105 L 248 105 L 242 101 L 236 100 L 233 98 Z"/>
<path fill="#082d17" d="M 228 373 L 228 380 L 231 378 L 232 379 L 231 382 L 234 382 L 236 378 L 233 374 Z"/>
<path fill="#dabf88" d="M 188 157 L 183 151 L 177 151 L 172 154 L 169 161 L 170 165 L 171 165 L 171 159 L 176 153 L 180 152 L 182 153 L 187 159 L 188 159 Z"/>
<path fill="#8f672e" d="M 198 206 L 198 212 L 201 216 L 202 216 L 202 215 L 204 213 L 206 213 L 206 212 L 203 210 L 202 206 Z"/>
<path fill="#cead6b" d="M 276 200 L 272 201 L 272 205 L 270 208 L 269 213 L 268 214 L 264 214 L 263 216 L 267 217 L 271 215 L 271 210 L 273 209 L 273 203 L 274 202 L 276 202 Z"/>
<path fill="#12462d" d="M 228 406 L 228 412 L 229 413 L 228 414 L 228 417 L 231 417 L 235 414 L 235 412 L 234 411 L 231 411 L 230 410 L 230 406 Z"/>
<path fill="#532f0d" d="M 200 172 L 201 174 L 200 175 L 200 178 L 201 180 L 204 181 L 206 179 L 208 179 L 208 178 L 206 177 L 207 172 L 206 172 L 205 175 L 203 176 L 202 175 L 203 171 Z"/>
<path fill="#f6f4f0" d="M 183 108 L 181 108 L 181 109 L 172 117 L 172 119 L 170 120 L 165 126 L 165 129 L 166 129 L 171 120 L 173 119 L 177 115 L 177 113 L 178 112 L 180 112 Z"/>
<path fill="#c09b56" d="M 231 355 L 229 355 L 227 358 L 225 357 L 225 355 L 224 355 L 224 357 L 223 358 L 222 357 L 219 357 L 220 359 L 220 364 L 222 364 L 222 361 L 223 360 L 226 360 L 231 358 Z"/>
<path fill="#6a4417" d="M 200 315 L 196 315 L 195 324 L 192 328 L 194 328 L 197 326 L 197 323 L 199 320 Z"/>
<path fill="#532f0d" d="M 230 304 L 226 304 L 224 308 L 225 311 L 223 313 L 221 312 L 219 317 L 222 319 L 222 321 L 223 321 L 223 318 L 222 318 L 221 316 L 223 314 L 226 316 L 226 314 L 225 313 L 227 311 L 226 306 L 227 305 L 230 306 Z"/>
<path fill="#f6f4f0" d="M 265 261 L 264 261 L 263 267 L 260 274 L 260 277 L 258 280 L 258 283 L 256 286 L 259 286 L 259 282 L 261 280 L 260 278 L 262 276 L 262 271 L 264 270 L 263 268 L 264 267 L 264 264 L 266 263 Z"/>
<path fill="#12462d" d="M 185 410 L 181 410 L 171 416 L 171 417 L 173 417 L 177 415 L 180 415 L 185 412 Z"/>
<path fill="#c09b56" d="M 173 150 L 179 147 L 181 148 L 185 148 L 185 147 L 182 144 L 180 144 L 179 145 L 178 144 L 176 144 L 173 148 Z"/>
<path fill="#7e561f" d="M 196 329 L 194 329 L 193 331 L 191 328 L 189 328 L 189 330 L 190 331 L 189 332 L 190 338 L 192 337 Z"/>
<path fill="#dabf88" d="M 267 143 L 267 146 L 262 152 L 262 154 L 266 152 L 271 152 L 272 154 L 273 154 L 271 151 L 269 151 L 268 150 L 269 143 Z"/>
<path fill="#cead6b" d="M 252 240 L 252 243 L 254 246 L 253 248 L 253 252 L 254 252 L 257 250 L 259 246 L 259 242 L 258 242 L 257 245 L 255 246 L 254 245 L 253 240 Z"/>
<path fill="#7e561f" d="M 207 209 L 207 214 L 206 216 L 209 220 L 211 220 L 211 216 L 213 215 L 213 214 L 211 214 L 209 212 L 208 209 Z"/>
<path fill="#12462d" d="M 254 406 L 253 406 L 253 410 L 254 412 L 252 414 L 250 414 L 248 416 L 248 418 L 250 418 L 251 417 L 256 417 Z"/>
<path fill="#b38b47" d="M 226 257 L 224 257 L 221 259 L 222 262 L 220 266 L 219 264 L 218 264 L 217 269 L 219 271 L 221 271 L 221 267 L 222 266 L 223 260 L 226 258 Z"/>
<path fill="#c09b56" d="M 204 115 L 202 115 L 198 120 L 194 121 L 193 123 L 194 124 L 198 124 L 198 122 L 202 120 L 204 117 Z"/>
<path fill="#dabf88" d="M 227 106 L 227 107 L 232 108 L 242 113 L 251 119 L 254 119 L 254 118 L 248 116 L 246 114 L 241 112 L 239 110 L 237 110 L 235 108 L 233 108 L 230 106 Z"/>
<path fill="#7e561f" d="M 237 301 L 235 302 L 235 305 L 236 306 L 234 308 L 231 307 L 233 311 L 232 313 L 235 314 L 234 311 L 236 310 L 236 308 L 238 306 Z"/>
<path fill="#7e561f" d="M 181 222 L 182 224 L 184 224 L 188 226 L 187 227 L 185 227 L 185 229 L 188 229 L 189 228 L 190 230 L 191 230 L 190 228 L 192 227 L 191 225 L 186 224 L 183 221 Z"/>
<path fill="#393e34" d="M 180 373 L 182 372 L 205 371 L 205 370 L 189 370 L 188 371 L 181 371 Z"/>
<path fill="#3c6e58" d="M 257 408 L 257 411 L 258 412 L 257 413 L 257 416 L 258 417 L 263 417 L 263 415 L 260 412 L 258 408 Z"/>
<path fill="#ead7ab" d="M 264 154 L 264 155 L 267 159 L 266 160 L 263 160 L 263 161 L 265 162 L 264 165 L 265 166 L 268 166 L 267 164 L 268 157 L 266 155 L 267 154 L 267 153 Z"/>
<path fill="#c09b56" d="M 229 365 L 232 369 L 238 369 L 238 368 L 241 366 L 241 365 L 240 365 L 238 367 L 237 365 L 235 366 L 232 366 L 231 364 Z"/>
<path fill="#532f0d" d="M 241 234 L 238 236 L 238 239 L 239 240 L 240 245 L 243 245 L 243 242 L 240 239 L 240 237 L 242 236 L 242 234 Z"/>
<path fill="#ae986f" d="M 247 385 L 249 389 L 251 389 L 252 390 L 252 392 L 254 392 L 253 389 L 255 386 L 253 385 Z"/>
<path fill="#f6f4f0" d="M 210 98 L 203 98 L 200 100 L 197 100 L 192 103 L 188 104 L 188 105 L 187 106 L 185 106 L 185 107 L 187 107 L 188 105 L 190 105 L 197 101 L 201 101 L 206 99 L 210 99 Z"/>
<path fill="#a27837" d="M 186 117 L 185 119 L 188 122 L 189 126 L 190 127 L 195 128 L 195 127 L 190 123 L 188 120 L 188 118 Z"/>
<path fill="#937a4e" d="M 279 422 L 277 421 L 276 423 L 272 425 L 258 425 L 258 426 L 276 426 Z"/>
<path fill="#dabf88" d="M 243 353 L 238 352 L 238 353 L 240 354 L 236 356 L 236 357 L 238 357 L 239 358 L 237 360 L 235 360 L 234 361 L 234 364 L 240 360 L 241 357 L 240 357 L 239 355 L 240 354 L 243 354 Z"/>
<path fill="#937a4e" d="M 190 385 L 185 385 L 184 386 L 177 386 L 176 387 L 174 387 L 173 388 L 173 391 L 180 387 L 190 386 Z"/>
<path fill="#ae986f" d="M 265 395 L 267 398 L 266 399 L 264 399 L 262 402 L 267 403 L 267 402 L 268 401 L 270 401 L 270 400 L 267 395 Z"/>
<path fill="#f6f4f0" d="M 249 355 L 249 358 L 252 364 L 254 365 L 255 368 L 258 371 L 262 371 L 262 370 L 259 370 L 255 366 L 255 365 L 253 364 L 253 359 L 252 359 L 250 357 L 250 355 Z"/>
<path fill="#dabf88" d="M 256 252 L 251 255 L 251 257 L 250 258 L 251 260 L 255 259 Z"/>
<path fill="#6a4417" d="M 199 263 L 200 268 L 198 269 L 198 270 L 200 270 L 202 273 L 205 273 L 204 269 L 202 268 L 201 264 Z"/>
<path fill="#b38b47" d="M 244 125 L 243 125 L 243 127 L 241 128 L 243 131 L 242 132 L 240 132 L 238 134 L 239 137 L 240 137 L 240 135 L 243 132 L 245 132 Z"/>
<path fill="#a27837" d="M 229 194 L 227 194 L 227 198 L 228 199 L 226 202 L 226 206 L 227 208 L 228 208 L 228 205 L 229 204 L 229 198 L 228 197 Z"/>
<path fill="#c09b56" d="M 258 249 L 258 252 L 260 254 L 259 255 L 260 258 L 258 259 L 258 262 L 260 263 L 260 261 L 261 260 L 261 253 L 260 252 L 262 251 L 262 250 L 260 251 L 259 249 Z"/>
<path fill="#6a4417" d="M 162 179 L 162 183 L 163 185 L 165 185 L 168 187 L 167 182 L 165 180 Z"/>
<path fill="#dabf88" d="M 217 112 L 217 115 L 219 114 L 223 114 L 228 116 L 231 120 L 232 120 L 231 116 L 221 112 Z"/>
<path fill="#532f0d" d="M 210 346 L 206 347 L 202 351 L 201 351 L 201 356 L 202 356 L 204 352 L 208 349 Z"/>
<path fill="#dabf88" d="M 214 192 L 211 194 L 206 193 L 206 197 L 211 197 L 214 194 Z"/>
<path fill="#f6f4f0" d="M 274 226 L 273 226 L 271 230 L 271 232 L 269 236 L 269 239 L 270 239 L 271 237 L 271 234 L 274 232 Z"/>
<path fill="#c09b56" d="M 181 206 L 181 208 L 185 208 L 186 209 L 185 210 L 182 210 L 182 211 L 183 212 L 186 212 L 186 210 L 188 209 L 188 207 L 187 206 Z"/>
<path fill="#b38b47" d="M 231 224 L 230 230 L 231 230 L 232 228 L 236 229 L 235 224 Z"/>
<path fill="#f6f4f0" d="M 176 271 L 177 275 L 182 283 L 182 285 L 184 285 L 183 281 L 181 279 L 177 271 Z"/>
<path fill="#b38b47" d="M 218 273 L 216 273 L 212 278 L 210 277 L 211 280 L 215 279 Z"/>
<path fill="#a27837" d="M 168 140 L 167 140 L 167 149 L 166 150 L 166 153 L 164 155 L 164 158 L 165 158 L 168 151 Z"/>
<path fill="#391b05" d="M 234 268 L 233 268 L 234 272 L 230 275 L 228 275 L 228 279 L 230 279 L 231 278 L 231 276 L 233 275 L 233 273 L 236 271 Z"/>
<path fill="#a27837" d="M 247 131 L 246 131 L 245 133 L 243 133 L 242 134 L 243 138 L 242 139 L 240 138 L 241 140 L 245 140 L 245 137 L 244 136 L 245 134 L 247 133 Z"/>
<path fill="#7e561f" d="M 251 148 L 250 148 L 248 152 L 246 152 L 246 153 L 248 154 L 248 159 L 247 161 L 249 161 L 249 154 L 251 153 Z"/>
<path fill="#e1ddd6" d="M 178 161 L 177 166 L 182 167 L 182 164 Z"/>
<path fill="#cead6b" d="M 221 246 L 218 248 L 217 254 L 221 254 L 221 249 L 220 248 Z"/>
<path fill="#f6f4f0" d="M 157 195 L 156 197 L 158 198 L 161 208 L 162 208 L 159 196 Z"/>
<path fill="#8f672e" d="M 165 137 L 165 142 L 163 143 L 163 144 L 164 145 L 164 148 L 166 149 L 166 140 L 167 138 Z"/>
<path fill="#b38b47" d="M 179 208 L 180 212 L 188 218 L 188 216 L 187 216 L 185 213 L 183 213 L 181 211 L 181 209 Z"/>
<path fill="#7e561f" d="M 204 274 L 200 274 L 198 275 L 197 277 L 195 277 L 195 278 L 197 279 L 199 276 L 201 276 L 202 278 L 204 278 Z"/>
<path fill="#747b77" d="M 214 371 L 215 373 L 215 377 L 218 377 L 217 375 L 219 373 L 219 371 Z"/>
<path fill="#8f672e" d="M 158 177 L 157 179 L 158 181 L 158 186 L 161 186 L 160 184 L 160 180 L 159 179 L 160 177 Z"/>
<path fill="#7e561f" d="M 269 178 L 267 178 L 263 182 L 265 185 L 268 184 L 268 183 L 266 182 L 268 181 Z"/>
<path fill="#f6f4f0" d="M 279 212 L 278 212 L 275 218 L 275 221 L 278 219 L 278 217 L 280 214 Z"/>
<path fill="#a27837" d="M 207 256 L 208 260 L 210 261 L 209 264 L 212 264 L 211 262 L 212 258 L 210 258 Z"/>
<path fill="#090a09" d="M 245 414 L 243 414 L 239 416 L 238 418 L 245 418 L 244 416 Z"/>
<path fill="#b38b47" d="M 235 350 L 233 351 L 231 350 L 230 354 L 231 354 L 232 356 L 233 356 L 235 353 Z"/>
<path fill="#dabf88" d="M 261 222 L 263 222 L 265 220 L 269 221 L 269 219 L 268 218 L 266 219 L 265 218 L 263 218 Z"/>
<path fill="#3c6e58" d="M 253 377 L 247 378 L 247 381 L 251 382 L 251 380 Z"/>
<path fill="#8f672e" d="M 247 162 L 247 165 L 249 168 L 249 171 L 250 171 L 251 170 L 250 168 L 250 163 Z"/>
<path fill="#c09b56" d="M 205 108 L 205 110 L 206 111 L 210 111 L 212 110 L 211 108 Z"/>
<path fill="#391b05" d="M 250 191 L 247 191 L 246 193 L 244 194 L 245 197 L 247 197 L 247 195 L 250 193 Z"/>
<path fill="#b38b47" d="M 230 217 L 232 220 L 235 221 L 236 216 L 232 216 Z"/>
<path fill="#a27837" d="M 201 130 L 198 132 L 198 134 L 196 138 L 197 138 L 199 134 L 202 134 L 203 133 Z"/>
<path fill="#cead6b" d="M 209 124 L 208 124 L 208 127 L 209 128 L 208 129 L 206 129 L 205 128 L 206 127 L 206 125 L 205 125 L 204 127 L 205 131 L 208 131 L 208 129 L 210 128 Z"/>
<path fill="#b38b47" d="M 216 286 L 211 287 L 213 292 L 214 292 L 214 290 Z"/>
<path fill="#c09b56" d="M 218 360 L 217 360 L 216 362 L 215 361 L 213 361 L 213 364 L 211 367 L 213 367 L 214 366 L 214 364 L 218 362 Z"/>
<path fill="#6a4417" d="M 189 247 L 189 249 L 193 251 L 198 250 L 198 249 L 194 250 L 193 248 L 191 247 L 191 245 L 190 245 Z"/>
<path fill="#393e34" d="M 209 417 L 209 419 L 225 419 L 225 418 L 211 418 Z"/>
<path fill="#f6f4f0" d="M 279 144 L 280 148 L 281 149 L 283 149 L 284 148 L 284 146 L 283 146 L 282 144 Z"/>
<path fill="#dabf88" d="M 210 421 L 210 422 L 227 422 L 227 421 Z"/>
<path fill="#f6f4f0" d="M 282 202 L 281 202 L 279 210 L 280 210 L 283 206 L 283 203 Z"/>
<path fill="#b38b47" d="M 231 359 L 224 361 L 224 362 L 227 362 L 228 364 L 229 364 L 231 361 Z"/>
<path fill="#8f672e" d="M 189 264 L 189 266 L 191 268 L 191 272 L 192 272 L 193 270 L 192 265 L 191 264 Z"/>
<path fill="#7e561f" d="M 198 152 L 199 152 L 199 150 L 201 149 L 202 147 L 206 147 L 207 149 L 208 149 L 209 147 L 200 145 L 201 147 L 200 149 L 198 150 Z"/>
<path fill="#532f0d" d="M 207 151 L 204 151 L 203 153 L 201 154 L 201 160 L 202 160 L 202 158 L 204 157 L 202 154 L 203 153 L 207 153 Z"/>
<path fill="#8f672e" d="M 192 301 L 191 303 L 192 305 L 194 306 L 194 308 L 195 308 L 197 305 L 195 306 L 193 305 L 193 304 L 195 303 L 195 300 Z"/>
<path fill="#8f672e" d="M 169 204 L 169 206 L 171 206 L 172 208 L 175 208 L 175 207 L 171 203 Z"/>
<path fill="#cead6b" d="M 185 150 L 179 148 L 173 151 L 172 153 L 177 150 L 183 150 L 184 151 L 185 151 Z"/>
<path fill="#532f0d" d="M 238 320 L 232 323 L 231 325 L 234 323 L 235 324 L 237 324 L 238 323 Z"/>
<path fill="#ae986f" d="M 265 242 L 264 242 L 264 245 L 263 246 L 263 252 L 262 253 L 262 255 L 263 255 L 264 253 Z"/>
<path fill="#f6f4f0" d="M 265 117 L 265 119 L 268 123 L 270 124 L 271 120 L 268 120 L 266 117 Z"/>
<path fill="#8f672e" d="M 186 197 L 182 198 L 184 202 L 187 201 Z"/>
<path fill="#8f672e" d="M 171 182 L 173 185 L 173 187 L 176 191 L 177 191 L 177 188 L 174 186 L 174 184 Z"/>
<path fill="#8f672e" d="M 206 287 L 203 288 L 202 286 L 201 286 L 202 288 L 199 292 L 205 289 Z"/>
<path fill="#a27837" d="M 227 363 L 226 363 L 225 365 L 222 366 L 221 368 L 227 369 L 227 368 L 225 367 L 225 366 L 227 365 Z"/>
<path fill="#a27837" d="M 181 191 L 179 191 L 178 193 L 176 192 L 174 193 L 174 194 L 175 195 L 177 195 L 181 193 Z"/>
<path fill="#391b05" d="M 243 275 L 239 275 L 240 277 L 239 279 L 236 277 L 238 282 L 239 282 L 239 279 L 241 278 Z"/>
<path fill="#391b05" d="M 237 260 L 237 264 L 238 264 L 239 265 L 239 267 L 240 267 L 240 261 L 239 260 Z"/>
<path fill="#dabf88" d="M 257 120 L 257 121 L 260 123 L 265 125 L 264 120 L 263 120 L 262 122 Z"/>
<path fill="#ead7ab" d="M 283 185 L 280 186 L 279 191 L 281 191 L 283 187 Z"/>
<path fill="#8f672e" d="M 167 400 L 167 403 L 172 403 L 172 401 L 170 401 L 169 399 Z"/>
<path fill="#a27837" d="M 178 246 L 179 250 L 178 251 L 176 250 L 176 251 L 181 253 L 180 251 L 181 248 Z"/>
<path fill="#c09b56" d="M 209 288 L 208 289 L 209 293 L 212 293 L 211 289 Z"/>
<path fill="#12462d" d="M 225 373 L 225 379 L 226 381 L 227 381 L 227 374 Z"/>
<path fill="#f6f4f0" d="M 270 394 L 270 396 L 273 402 L 274 402 L 272 394 Z"/>
<path fill="#f6f4f0" d="M 168 390 L 167 390 L 167 392 L 164 394 L 160 394 L 160 395 L 161 396 L 163 395 L 165 396 L 166 395 L 166 393 L 168 392 Z"/>
<path fill="#f6f4f0" d="M 181 358 L 179 358 L 180 360 L 179 361 L 178 367 L 180 366 Z"/>
<path fill="#8f672e" d="M 163 187 L 163 190 L 166 189 L 169 191 L 170 193 L 171 193 L 171 191 L 170 191 L 169 189 L 167 189 Z"/>
<path fill="#8f672e" d="M 216 176 L 213 177 L 209 181 L 208 181 L 208 182 L 212 181 L 213 179 L 216 177 Z"/>
<path fill="#a27837" d="M 203 219 L 204 224 L 207 225 L 207 222 Z"/>
<path fill="#7e561f" d="M 236 294 L 237 299 L 239 299 L 240 298 L 239 294 Z"/>
<path fill="#7e561f" d="M 193 292 L 190 294 L 190 297 L 187 299 L 187 300 L 191 301 L 191 299 L 190 298 L 191 297 L 191 294 L 193 293 Z"/>
<path fill="#6a4417" d="M 233 292 L 231 295 L 231 297 L 234 298 L 235 300 L 236 300 L 236 297 L 233 297 L 232 296 L 232 295 L 235 293 L 235 292 Z"/>
<path fill="#532f0d" d="M 196 251 L 198 255 L 203 256 L 202 252 L 201 252 L 200 254 Z"/>
<path fill="#12462d" d="M 264 414 L 264 416 L 265 417 L 271 417 L 271 416 Z"/>
<path fill="#b38b47" d="M 227 185 L 226 187 L 229 189 L 228 190 L 228 191 L 229 191 L 230 190 L 230 186 Z"/>
<path fill="#7e561f" d="M 198 362 L 198 366 L 197 368 L 200 368 L 200 363 Z"/>
<path fill="#6a4417" d="M 198 347 L 197 347 L 197 349 L 195 350 L 193 354 L 195 354 L 197 352 Z"/>
<path fill="#a27837" d="M 203 362 L 202 363 L 202 365 L 204 366 L 204 368 L 206 368 L 204 365 L 206 362 Z"/>
<path fill="#7e561f" d="M 229 330 L 228 332 L 230 332 L 231 333 L 231 335 L 233 335 L 233 332 L 232 332 L 231 330 Z"/>
<path fill="#cead6b" d="M 200 231 L 200 233 L 202 236 L 206 234 L 206 232 L 202 234 L 201 233 L 201 231 Z"/>
<path fill="#ead7ab" d="M 252 261 L 251 262 L 251 265 L 252 267 L 254 267 L 254 265 L 252 263 L 254 262 L 254 261 Z"/>
<path fill="#b38b47" d="M 173 231 L 173 233 L 174 234 L 174 239 L 175 239 L 175 233 L 176 231 Z"/>
<path fill="#b38b47" d="M 199 135 L 198 138 L 202 139 L 201 137 L 202 135 Z"/>
<path fill="#a27837" d="M 206 275 L 206 280 L 208 280 L 209 279 L 208 275 Z"/>
<path fill="#c09b56" d="M 226 253 L 225 254 L 225 256 L 228 257 L 229 255 L 228 253 Z"/>
<path fill="#c09b56" d="M 238 121 L 239 126 L 242 127 L 240 121 Z"/>
<path fill="#f6f4f0" d="M 185 334 L 185 337 L 186 338 L 185 341 L 187 341 L 187 335 Z"/>
<path fill="#6a4417" d="M 247 170 L 245 170 L 245 174 L 244 176 L 247 174 Z"/>
<path fill="#cead6b" d="M 194 285 L 195 287 L 193 288 L 193 289 L 194 290 L 197 290 L 197 288 L 195 285 Z"/>
<path fill="#dabf88" d="M 269 191 L 275 190 L 275 189 L 270 188 Z"/>
<path fill="#7e561f" d="M 246 246 L 247 250 L 248 251 L 250 251 L 248 246 Z"/>
<path fill="#6a4417" d="M 214 354 L 212 355 L 208 355 L 207 357 L 211 357 L 214 355 Z"/>
<path fill="#6a4417" d="M 216 333 L 213 333 L 212 334 L 212 336 L 214 337 Z"/>
<path fill="#6a4417" d="M 234 315 L 232 315 L 229 319 L 231 319 Z"/>
<path fill="#6a4417" d="M 232 148 L 234 153 L 237 152 L 237 151 L 235 151 L 234 150 L 234 148 Z"/>
<path fill="#dabf88" d="M 285 174 L 284 174 L 283 176 L 283 180 L 282 181 L 282 183 L 280 184 L 280 185 L 281 185 L 284 181 L 284 176 Z"/>
<path fill="#dabf88" d="M 229 125 L 229 127 L 230 127 L 231 129 L 234 130 L 234 129 L 232 128 L 233 125 L 231 126 Z"/>
<path fill="#937a4e" d="M 231 401 L 232 403 L 236 403 L 237 402 L 237 401 Z"/>
<path fill="#8f672e" d="M 240 292 L 240 294 L 241 295 L 240 300 L 243 299 L 243 298 L 242 297 L 241 292 Z"/>
<path fill="#8f672e" d="M 240 141 L 241 143 L 246 144 L 246 142 L 242 142 Z"/>
<path fill="#7e561f" d="M 248 172 L 248 175 L 249 175 L 250 177 L 254 177 L 254 176 L 251 176 L 250 175 L 250 173 Z"/>
<path fill="#c09b56" d="M 178 210 L 179 215 L 180 216 L 182 216 L 179 212 L 179 210 Z"/>
<path fill="#c09b56" d="M 218 133 L 216 136 L 219 135 L 220 136 L 220 138 L 221 138 L 223 135 L 220 135 L 219 133 Z"/>
<path fill="#6a4417" d="M 192 339 L 190 339 L 190 342 L 188 346 L 190 345 L 190 343 L 192 341 Z"/>
<path fill="#cead6b" d="M 256 163 L 256 168 L 257 168 L 260 164 Z"/>
<path fill="#ead7ab" d="M 269 187 L 266 188 L 266 191 L 267 192 L 268 192 Z"/>
<path fill="#f6f4f0" d="M 172 260 L 172 266 L 173 268 L 174 268 L 173 260 Z"/>
<path fill="#f6f4f0" d="M 272 125 L 272 130 L 274 133 L 275 133 L 273 128 L 273 125 Z"/>
<path fill="#b38b47" d="M 179 239 L 178 239 L 178 243 L 177 244 L 175 243 L 176 245 L 180 242 L 180 240 Z"/>
<path fill="#8f672e" d="M 170 394 L 170 395 L 174 396 L 174 393 L 171 393 Z"/>
<path fill="#8f672e" d="M 176 212 L 174 212 L 174 214 L 171 216 L 171 218 L 172 218 L 172 217 L 176 214 Z"/>
<path fill="#8f672e" d="M 199 147 L 196 148 L 195 152 L 197 152 L 197 150 Z"/>
<path fill="#a27837" d="M 227 222 L 223 225 L 225 228 L 226 228 L 226 224 Z"/>
<path fill="#a27837" d="M 194 209 L 194 210 L 196 211 L 198 216 L 200 217 L 200 215 L 197 211 Z"/>
<path fill="#7e561f" d="M 280 164 L 279 164 L 279 166 L 275 173 L 277 172 L 280 166 Z"/>
<path fill="#7e561f" d="M 245 164 L 245 169 L 248 169 L 246 164 Z"/>
<path fill="#cead6b" d="M 246 366 L 248 369 L 250 369 L 250 366 Z"/>
<path fill="#cead6b" d="M 180 181 L 182 184 L 184 184 L 184 181 Z"/>
<path fill="#dabf88" d="M 258 421 L 258 422 L 268 422 L 268 421 Z"/>
<path fill="#dabf88" d="M 178 178 L 178 179 L 180 180 L 184 180 L 185 179 L 185 178 L 183 179 Z"/>
<path fill="#b38b47" d="M 225 351 L 224 351 L 221 355 L 223 355 L 225 353 Z"/>
<path fill="#a27837" d="M 230 144 L 229 144 L 229 147 L 228 148 L 224 147 L 224 150 L 225 150 L 226 148 L 228 149 L 228 148 L 230 147 Z"/>
<path fill="#7e561f" d="M 198 218 L 199 220 L 198 222 L 200 222 L 201 218 Z"/>
<path fill="#c09b56" d="M 196 231 L 197 234 L 200 235 L 199 231 Z"/>
<path fill="#c09b56" d="M 265 175 L 264 175 L 263 177 L 261 176 L 261 178 L 263 179 L 265 177 Z"/>
<path fill="#6a4417" d="M 199 179 L 198 182 L 202 183 L 202 181 Z"/>
<path fill="#532f0d" d="M 211 329 L 209 329 L 209 332 L 206 336 L 208 336 Z"/>
<path fill="#f6f4f0" d="M 290 170 L 288 170 L 287 172 L 287 178 L 288 178 L 288 172 L 290 171 Z"/>
<path fill="#b38b47" d="M 204 292 L 204 294 L 205 295 L 208 294 L 208 292 L 206 293 Z"/>
<path fill="#a27837" d="M 193 216 L 193 219 L 194 220 L 196 220 L 195 216 Z"/>
<path fill="#a27837" d="M 165 165 L 165 170 L 167 171 L 166 169 L 167 166 Z"/>
<path fill="#a27837" d="M 201 140 L 201 142 L 205 142 L 206 144 L 207 144 L 207 143 L 205 142 L 205 140 Z"/>
<path fill="#7e561f" d="M 194 174 L 194 176 L 196 175 L 198 176 L 198 174 L 196 173 Z"/>
<path fill="#c09b56" d="M 219 235 L 218 238 L 222 239 L 220 235 Z"/>
<path fill="#532f0d" d="M 221 328 L 219 329 L 219 332 L 222 330 Z"/>
<path fill="#ae986f" d="M 254 370 L 253 369 L 251 369 L 250 370 L 248 370 L 248 371 L 254 371 Z"/>
<path fill="#f6f4f0" d="M 156 153 L 156 159 L 158 159 L 157 153 Z"/>
<path fill="#f6f4f0" d="M 164 132 L 162 132 L 161 134 L 162 136 L 163 136 Z"/>
<path fill="#b38b47" d="M 281 170 L 279 171 L 278 174 L 280 174 L 281 173 Z"/>
<path fill="#8f672e" d="M 207 300 L 205 300 L 205 305 L 206 305 L 207 303 Z"/>
<path fill="#a27837" d="M 221 208 L 220 211 L 221 212 L 223 212 L 223 210 L 222 208 Z"/>
<path fill="#a27837" d="M 251 205 L 250 205 L 249 207 L 249 210 L 251 210 Z"/>
<path fill="#c09b56" d="M 209 274 L 210 276 L 213 276 L 212 273 Z"/>
<path fill="#c09b56" d="M 235 180 L 237 185 L 238 185 L 238 181 Z"/>
<path fill="#cead6b" d="M 234 121 L 233 124 L 236 123 L 237 125 L 238 125 L 238 123 Z"/>
<path fill="#cead6b" d="M 214 117 L 211 117 L 209 121 L 214 118 Z"/>
<path fill="#532f0d" d="M 230 298 L 230 300 L 232 301 L 234 300 L 234 299 Z"/>
<path fill="#dabf88" d="M 259 166 L 258 167 L 258 169 L 259 170 L 261 170 L 260 166 Z"/>
<path fill="#937a4e" d="M 160 170 L 158 170 L 157 175 L 158 175 Z"/>
<path fill="#f6f4f0" d="M 158 162 L 157 162 L 157 164 L 155 165 L 155 167 L 158 166 Z"/>
<path fill="#b38b47" d="M 256 266 L 256 271 L 258 272 L 257 266 Z"/>
<path fill="#7e561f" d="M 184 241 L 185 245 L 187 245 L 186 241 Z"/>
<path fill="#7e561f" d="M 225 198 L 222 200 L 223 202 L 225 202 Z"/>
<path fill="#c09b56" d="M 236 196 L 236 197 L 238 197 L 240 199 L 240 201 L 241 201 L 240 197 L 239 196 Z"/>
<path fill="#c09b56" d="M 209 188 L 209 192 L 210 192 L 211 190 L 213 190 L 213 189 Z"/>
<path fill="#6a4417" d="M 187 293 L 187 298 L 188 298 L 189 297 L 189 295 L 188 293 Z"/>
<path fill="#937a4e" d="M 173 402 L 173 403 L 178 403 L 177 401 Z"/>
<path fill="#ead7ab" d="M 265 221 L 264 222 L 264 224 L 267 224 L 267 222 Z"/>
<path fill="#b38b47" d="M 269 204 L 267 205 L 267 208 L 269 208 Z"/>
<path fill="#b38b47" d="M 219 203 L 219 206 L 222 206 L 221 203 Z"/>
<path fill="#8f672e" d="M 244 259 L 244 262 L 247 262 L 246 259 Z"/>
<path fill="#a27837" d="M 186 390 L 185 393 L 188 393 L 188 390 Z"/>
<path fill="#a27837" d="M 177 239 L 174 240 L 174 242 L 177 242 Z"/>
<path fill="#c09b56" d="M 221 244 L 218 244 L 218 246 L 216 247 L 216 248 L 219 247 Z"/>
<path fill="#c09b56" d="M 239 130 L 235 131 L 235 132 L 238 133 L 239 132 Z"/>
<path fill="#6a4417" d="M 185 237 L 185 239 L 187 242 L 188 242 L 187 237 Z"/>
<path fill="#cead6b" d="M 243 346 L 242 346 L 242 350 L 241 352 L 243 352 Z"/>
<path fill="#cead6b" d="M 236 335 L 236 338 L 239 338 L 239 336 Z"/>
<path fill="#cead6b" d="M 249 267 L 249 270 L 252 271 L 251 268 Z"/>
<path fill="#ae986f" d="M 260 390 L 260 394 L 262 394 L 262 391 Z"/>
<path fill="#f6f4f0" d="M 188 428 L 188 429 L 195 429 L 195 428 Z"/>
<path fill="#f6f4f0" d="M 287 182 L 286 182 L 284 188 L 285 188 L 287 184 Z"/>
<path fill="#8f672e" d="M 204 345 L 203 345 L 199 351 L 200 351 L 200 350 L 204 347 Z"/>
<path fill="#8f672e" d="M 247 265 L 245 266 L 245 270 L 246 270 Z"/>
<path fill="#a27837" d="M 225 235 L 226 239 L 228 239 L 228 237 Z"/>
<path fill="#a27837" d="M 251 166 L 252 172 L 253 172 L 253 168 L 252 166 Z"/>
<path fill="#7e561f" d="M 251 200 L 250 202 L 253 203 L 253 200 Z"/>
<path fill="#c09b56" d="M 170 229 L 171 232 L 174 230 L 174 229 Z"/>
<path fill="#6a4417" d="M 235 143 L 234 143 L 232 146 L 236 146 Z"/>
<path fill="#cead6b" d="M 201 421 L 201 422 L 208 422 L 208 421 Z"/>
<path fill="#cead6b" d="M 250 277 L 249 278 L 249 280 L 251 281 L 251 277 Z"/>
<path fill="#cead6b" d="M 258 185 L 258 187 L 259 188 L 261 188 L 260 185 Z"/>
<path fill="#532f0d" d="M 242 263 L 241 263 L 241 267 L 240 269 L 242 268 Z"/>
<path fill="#f6f4f0" d="M 155 188 L 155 193 L 157 193 L 156 188 Z"/>
<path fill="#b38b47" d="M 214 358 L 209 360 L 209 361 L 214 360 Z"/>
<path fill="#b38b47" d="M 204 138 L 204 139 L 206 140 L 206 142 L 207 142 L 207 138 Z"/>
<path fill="#7e561f" d="M 195 178 L 195 180 L 197 181 L 198 179 Z"/>
<path fill="#c09b56" d="M 191 220 L 191 222 L 194 224 L 194 222 Z"/>
<path fill="#6a4417" d="M 227 331 L 226 331 L 224 335 L 227 334 Z"/>
<path fill="#cead6b" d="M 201 199 L 201 201 L 203 200 L 206 201 L 206 200 L 204 199 Z"/>
<path fill="#090a09" d="M 77 61 L 77 63 L 79 64 L 80 62 Z"/>
<path fill="#dabf88" d="M 212 200 L 212 202 L 214 202 L 215 204 L 216 204 L 215 201 Z"/>
<path fill="#f6f4f0" d="M 260 428 L 260 429 L 266 429 L 266 428 Z"/>
<path fill="#f6f4f0" d="M 220 428 L 220 429 L 226 429 L 226 428 Z"/>
<path fill="#f6f4f0" d="M 248 317 L 247 317 L 247 321 L 246 323 L 247 323 L 248 321 Z"/>
<path fill="#f6f4f0" d="M 252 306 L 250 306 L 249 307 L 249 310 L 250 310 L 250 308 L 252 307 Z"/>
<path fill="#b38b47" d="M 185 388 L 184 388 L 183 393 L 184 393 L 185 391 Z"/>
<path fill="#b38b47" d="M 178 183 L 178 186 L 179 188 L 180 188 L 179 183 Z"/>
<path fill="#b38b47" d="M 220 132 L 220 134 L 223 134 L 223 132 Z"/>
<path fill="#8f672e" d="M 187 274 L 188 276 L 192 276 L 192 275 Z"/>
<path fill="#8f672e" d="M 265 201 L 263 201 L 262 204 L 264 204 Z"/>
<path fill="#8f672e" d="M 250 186 L 250 188 L 254 190 L 254 189 Z"/>
<path fill="#8f672e" d="M 235 168 L 233 167 L 231 168 L 231 169 L 235 169 Z"/>
<path fill="#a27837" d="M 190 187 L 190 189 L 193 190 L 193 188 Z"/>
<path fill="#7e561f" d="M 216 180 L 215 183 L 216 185 L 217 185 L 217 183 L 216 182 L 217 180 Z"/>
<path fill="#c09b56" d="M 193 284 L 191 283 L 189 284 L 189 285 L 193 285 Z"/>
<path fill="#c09b56" d="M 237 218 L 236 218 L 236 221 L 235 222 L 232 222 L 232 223 L 235 223 L 235 222 L 237 221 Z"/>
<path fill="#cead6b" d="M 240 345 L 238 346 L 237 350 L 238 350 Z"/>
<path fill="#cead6b" d="M 238 203 L 238 206 L 240 206 L 240 203 Z"/>
<path fill="#532f0d" d="M 198 357 L 195 359 L 195 361 L 196 361 Z"/>
<path fill="#532f0d" d="M 227 291 L 225 291 L 223 295 L 224 295 Z"/>
<path fill="#532f0d" d="M 219 289 L 217 290 L 217 293 L 218 293 Z"/>
<path fill="#532f0d" d="M 212 156 L 214 159 L 216 159 L 216 157 Z"/>
<path fill="#391b05" d="M 234 258 L 232 259 L 232 262 L 233 262 Z"/>
<path fill="#937a4e" d="M 217 385 L 214 386 L 213 387 L 213 389 L 214 389 Z"/>
<path fill="#393e34" d="M 258 418 L 258 419 L 264 419 L 264 418 Z"/>
<path fill="#393e34" d="M 196 404 L 196 405 L 202 405 L 202 404 Z"/>
<path fill="#f6f4f0" d="M 167 247 L 167 248 L 170 250 L 169 247 Z"/>
<path fill="#b38b47" d="M 210 365 L 209 365 L 208 369 L 210 369 L 209 367 Z"/>
<path fill="#b38b47" d="M 266 195 L 264 195 L 264 198 L 266 197 Z"/>
<path fill="#b38b47" d="M 213 185 L 211 186 L 211 188 L 213 188 Z"/>
<path fill="#8f672e" d="M 204 216 L 204 218 L 208 221 L 208 219 L 206 219 L 205 218 L 205 216 Z"/>
<path fill="#8f672e" d="M 210 143 L 208 144 L 208 146 L 210 146 Z"/>
<path fill="#a27837" d="M 174 204 L 175 206 L 177 206 L 177 204 Z"/>
<path fill="#a27837" d="M 187 198 L 188 200 L 190 200 L 190 198 Z"/>
<path fill="#a27837" d="M 175 183 L 175 186 L 177 186 L 177 184 Z"/>
<path fill="#7e561f" d="M 205 358 L 205 360 L 207 360 L 208 359 L 208 358 Z"/>
<path fill="#7e561f" d="M 208 339 L 208 341 L 210 341 L 211 340 L 211 339 Z"/>
<path fill="#7e561f" d="M 244 187 L 243 187 L 241 190 L 244 189 Z"/>
<path fill="#6a4417" d="M 204 257 L 202 258 L 202 260 L 204 260 Z"/>
<path fill="#6a4417" d="M 184 225 L 182 226 L 182 228 L 184 228 Z"/>
<path fill="#6a4417" d="M 215 150 L 213 151 L 213 153 L 215 153 Z"/>
<path fill="#cead6b" d="M 259 218 L 259 220 L 261 220 L 262 219 L 262 218 Z"/>
<path fill="#cead6b" d="M 269 168 L 269 171 L 271 171 L 271 169 Z"/>
<path fill="#cead6b" d="M 286 165 L 284 165 L 283 168 L 284 168 Z"/>
<path fill="#cead6b" d="M 277 150 L 275 150 L 274 153 L 275 153 Z"/>
<path fill="#cead6b" d="M 206 117 L 205 117 L 203 120 L 206 119 Z"/>
<path fill="#090a09" d="M 86 318 L 83 319 L 83 321 L 84 321 Z"/>
<path fill="#532f0d" d="M 246 230 L 246 232 L 249 233 L 249 232 Z"/>
<path fill="#532f0d" d="M 228 170 L 228 173 L 230 173 L 230 171 Z"/>
<path fill="#391b05" d="M 260 191 L 258 192 L 258 194 L 260 194 Z"/>
<path fill="#dabf88" d="M 279 192 L 277 193 L 277 195 L 279 195 Z"/>
<path fill="#937a4e" d="M 168 397 L 168 398 L 171 398 L 171 396 L 169 396 Z"/>
<path fill="#937a4e" d="M 219 395 L 217 395 L 217 399 L 218 399 Z"/>
<path fill="#fefefe" d="M 182 353 L 180 354 L 180 356 L 182 355 Z"/>
<path fill="#f6f4f0" d="M 165 221 L 165 226 L 166 226 L 166 221 Z"/>
<path fill="#f6f4f0" d="M 158 144 L 158 149 L 159 149 L 159 144 Z"/>
<path fill="#b38b47" d="M 211 294 L 210 296 L 212 297 L 212 294 Z"/>
<path fill="#b38b47" d="M 189 187 L 187 187 L 186 189 L 188 189 Z"/>
<path fill="#8f672e" d="M 202 280 L 203 282 L 205 282 L 204 280 Z"/>
<path fill="#8f672e" d="M 192 228 L 192 231 L 193 231 L 194 229 Z"/>
<path fill="#a27837" d="M 208 296 L 208 299 L 209 299 L 210 297 Z"/>
<path fill="#a27837" d="M 180 262 L 183 266 L 185 266 L 185 265 L 182 264 L 181 262 Z"/>
<path fill="#a27837" d="M 177 227 L 178 229 L 177 231 L 178 231 L 179 229 L 178 227 Z"/>
<path fill="#a27837" d="M 170 133 L 169 133 L 168 138 L 169 138 Z"/>
<path fill="#7e561f" d="M 196 154 L 196 159 L 197 159 L 197 154 Z"/>
<path fill="#c09b56" d="M 184 421 L 184 422 L 189 422 L 189 421 Z"/>
<path fill="#c09b56" d="M 244 366 L 248 365 L 248 364 L 245 364 Z"/>
<path fill="#c09b56" d="M 196 285 L 196 286 L 199 288 L 199 287 Z"/>
<path fill="#c09b56" d="M 254 278 L 252 279 L 252 282 L 253 282 Z"/>
<path fill="#c09b56" d="M 217 234 L 215 234 L 214 236 L 216 236 Z"/>
<path fill="#c09b56" d="M 217 225 L 217 227 L 219 228 L 219 226 Z"/>
<path fill="#c09b56" d="M 253 161 L 254 166 L 255 166 L 255 163 L 254 161 Z"/>
<path fill="#c09b56" d="M 208 121 L 206 122 L 206 124 L 208 123 Z"/>
<path fill="#6a4417" d="M 241 255 L 242 259 L 243 259 L 243 256 Z"/>
<path fill="#6a4417" d="M 243 236 L 243 237 L 245 238 L 245 239 L 243 240 L 243 241 L 246 240 L 246 238 Z"/>
<path fill="#cead6b" d="M 196 189 L 200 188 L 200 187 L 197 187 Z"/>
<path fill="#cead6b" d="M 266 172 L 262 173 L 262 174 L 265 174 Z"/>
<path fill="#532f0d" d="M 230 207 L 230 212 L 231 212 L 231 207 Z"/>
<path fill="#532f0d" d="M 212 149 L 212 150 L 215 149 L 216 151 L 217 151 L 215 148 L 213 148 Z"/>
<path fill="#dabf88" d="M 249 271 L 248 273 L 249 275 L 250 275 L 249 273 L 250 271 Z"/>
<path fill="#dabf88" d="M 202 189 L 201 189 L 200 191 L 198 191 L 198 193 L 200 193 L 200 191 L 202 190 Z"/>
<path fill="#ead7ab" d="M 262 170 L 262 171 L 265 171 L 264 169 Z"/>
<path fill="#f6f4f0" d="M 289 158 L 289 161 L 291 161 L 290 158 Z"/>
<path fill="#b38b47" d="M 232 232 L 233 235 L 234 235 L 234 232 Z"/>
<path fill="#8f672e" d="M 223 244 L 223 247 L 225 247 L 224 244 Z"/>
<path fill="#8f672e" d="M 199 141 L 199 144 L 201 144 L 200 141 Z"/>
<path fill="#a27837" d="M 235 211 L 233 211 L 233 214 L 234 214 Z"/>
<path fill="#a27837" d="M 278 175 L 275 176 L 275 177 L 278 177 Z"/>
<path fill="#a27837" d="M 255 140 L 254 140 L 253 143 L 255 143 Z"/>
<path fill="#7e561f" d="M 240 143 L 237 144 L 237 145 L 240 145 Z"/>
<path fill="#c09b56" d="M 241 347 L 240 347 L 239 350 L 241 350 Z"/>
<path fill="#c09b56" d="M 218 282 L 216 282 L 216 285 L 217 285 Z"/>
<path fill="#f6f4f0" d="M 239 428 L 239 429 L 243 429 L 243 428 Z"/>
<path fill="#f6f4f0" d="M 197 428 L 197 429 L 201 429 L 201 428 Z"/>
<path fill="#f6f4f0" d="M 160 428 L 160 429 L 164 429 L 164 428 Z"/>
<path fill="#f6f4f0" d="M 362 336 L 362 337 L 366 340 L 366 339 Z"/>
<path fill="#f6f4f0" d="M 167 242 L 167 244 L 169 244 L 169 242 Z"/>
<path fill="#f6f4f0" d="M 166 231 L 166 235 L 167 235 L 167 231 Z"/>
<path fill="#f6f4f0" d="M 284 190 L 283 190 L 282 194 L 283 194 Z"/>
<path fill="#f6f4f0" d="M 153 175 L 153 179 L 154 179 L 154 175 Z"/>
<path fill="#f6f4f0" d="M 160 138 L 160 142 L 161 142 L 161 138 Z"/>
<path fill="#b38b47" d="M 191 421 L 191 422 L 194 423 L 193 421 Z"/>
<path fill="#b38b47" d="M 241 363 L 239 363 L 238 365 L 241 364 Z"/>
<path fill="#b38b47" d="M 228 354 L 226 355 L 226 357 L 227 357 Z"/>
<path fill="#b38b47" d="M 225 242 L 225 244 L 227 244 L 227 242 Z"/>
<path fill="#b38b47" d="M 240 211 L 240 213 L 242 213 L 242 211 Z"/>
<path fill="#b38b47" d="M 237 211 L 236 211 L 235 214 L 237 213 Z"/>
<path fill="#b38b47" d="M 174 202 L 174 203 L 177 202 L 178 204 L 179 204 L 177 201 Z"/>
<path fill="#b38b47" d="M 236 192 L 236 193 L 239 195 L 239 193 Z"/>
<path fill="#8f672e" d="M 173 425 L 173 426 L 177 426 L 177 425 Z"/>
<path fill="#8f672e" d="M 190 424 L 190 425 L 194 425 L 194 424 Z"/>
<path fill="#8f672e" d="M 204 391 L 204 392 L 208 392 L 208 391 Z"/>
<path fill="#8f672e" d="M 188 253 L 187 253 L 186 256 L 188 255 Z"/>
<path fill="#8f672e" d="M 250 229 L 251 233 L 252 233 L 252 231 L 251 229 Z"/>
<path fill="#8f672e" d="M 227 209 L 227 213 L 228 213 L 228 209 Z"/>
<path fill="#8f672e" d="M 162 196 L 162 197 L 166 198 L 166 197 Z"/>
<path fill="#8f672e" d="M 224 163 L 222 163 L 221 166 L 222 166 Z"/>
<path fill="#a27837" d="M 227 214 L 227 218 L 228 218 L 228 214 Z"/>
<path fill="#a27837" d="M 189 206 L 189 208 L 191 209 L 190 206 Z"/>
<path fill="#7e561f" d="M 197 354 L 194 355 L 194 356 L 196 356 Z"/>
<path fill="#7e561f" d="M 165 195 L 165 196 L 169 197 L 169 196 Z"/>
<path fill="#c09b56" d="M 230 351 L 227 352 L 227 353 L 229 353 Z"/>
<path fill="#c09b56" d="M 230 238 L 229 238 L 228 242 L 229 242 Z"/>
<path fill="#c09b56" d="M 280 175 L 280 179 L 281 179 L 281 175 Z"/>
<path fill="#6a4417" d="M 193 273 L 194 276 L 195 276 L 195 274 Z"/>
<path fill="#6a4417" d="M 193 257 L 193 259 L 195 260 L 194 257 Z"/>
<path fill="#6a4417" d="M 178 220 L 179 224 L 180 224 L 180 222 L 179 220 Z"/>
<path fill="#6a4417" d="M 252 195 L 251 195 L 250 199 L 251 199 Z"/>
<path fill="#6a4417" d="M 218 170 L 216 171 L 216 173 L 217 173 Z"/>
<path fill="#cead6b" d="M 192 168 L 191 168 L 190 172 L 191 172 Z"/>
<path fill="#cead6b" d="M 203 105 L 203 107 L 205 107 L 205 105 Z"/>
<path fill="#532f0d" d="M 218 319 L 217 319 L 216 322 L 218 321 Z"/>
<path fill="#532f0d" d="M 242 227 L 240 227 L 239 230 L 240 230 Z"/>
<path fill="#532f0d" d="M 244 225 L 244 226 L 247 227 L 246 225 Z"/>
<path fill="#dabf88" d="M 268 161 L 268 162 L 270 163 L 269 166 L 270 166 L 271 163 Z"/>
<path fill="#20221d" d="M 244 404 L 244 405 L 248 405 L 248 404 Z"/>
<path fill="#937a4e" d="M 235 390 L 235 392 L 237 392 L 237 390 Z"/>
<path fill="#937a4e" d="M 269 228 L 267 229 L 267 231 L 268 231 Z"/>
<path fill="#393e34" d="M 259 407 L 259 409 L 261 410 L 260 407 Z"/>
<path fill="#ead7ab" d="M 198 103 L 199 105 L 201 105 L 201 104 Z"/>
<path fill="#f6f4f0" d="M 171 382 L 171 383 L 173 384 L 173 382 Z"/>
<path fill="#f6f4f0" d="M 177 370 L 176 370 L 175 372 L 177 372 Z"/>
<path fill="#b38b47" d="M 217 364 L 215 364 L 215 366 L 216 366 Z"/>
<path fill="#b38b47" d="M 182 253 L 182 255 L 184 255 L 184 254 Z"/>
<path fill="#b38b47" d="M 252 226 L 252 228 L 254 228 L 254 227 Z"/>
<path fill="#b38b47" d="M 175 179 L 174 179 L 173 181 L 175 181 Z"/>
<path fill="#b38b47" d="M 234 163 L 232 163 L 232 165 L 233 165 Z"/>
<path fill="#8f672e" d="M 203 250 L 203 251 L 205 252 L 205 250 Z"/>
<path fill="#8f672e" d="M 248 238 L 248 240 L 250 240 L 250 239 Z"/>
<path fill="#8f672e" d="M 225 218 L 225 220 L 227 220 L 227 219 Z"/>
<path fill="#8f672e" d="M 251 173 L 251 175 L 253 175 L 253 174 Z"/>
<path fill="#8f672e" d="M 235 172 L 235 174 L 237 174 L 237 173 Z"/>
<path fill="#8f672e" d="M 278 163 L 277 163 L 276 165 L 278 165 Z"/>
<path fill="#a27837" d="M 240 190 L 239 190 L 238 192 L 240 192 Z"/>
<path fill="#a27837" d="M 226 132 L 224 132 L 224 134 L 225 134 Z"/>
<path fill="#c09b56" d="M 257 211 L 255 211 L 255 213 L 256 213 Z"/>
<path fill="#c09b56" d="M 250 134 L 250 136 L 252 136 L 252 135 Z"/>
<path fill="#6a4417" d="M 231 327 L 230 327 L 229 329 L 231 329 Z"/>
<path fill="#6a4417" d="M 224 325 L 222 325 L 222 327 L 223 327 Z"/>
<path fill="#6a4417" d="M 235 266 L 235 267 L 237 268 L 237 266 Z"/>
<path fill="#6a4417" d="M 242 223 L 241 223 L 240 225 L 242 225 Z"/>
<path fill="#6a4417" d="M 257 203 L 255 203 L 255 205 L 256 205 Z"/>
<path fill="#090a09" d="M 68 336 L 67 336 L 66 338 L 68 338 Z"/>
<path fill="#532f0d" d="M 239 247 L 238 247 L 237 249 L 239 249 Z"/>
<path fill="#937a4e" d="M 241 308 L 240 308 L 239 310 L 241 310 Z"/>
<path fill="#937a4e" d="M 175 121 L 174 121 L 173 123 L 175 123 Z"/>
<path fill="#ead7ab" d="M 241 389 L 239 389 L 239 391 L 240 391 Z"/>
<path fill="#ae986f" d="M 245 309 L 245 310 L 247 311 L 247 309 Z"/>
<path fill="#ae986f" d="M 175 262 L 175 264 L 177 264 L 177 263 Z"/>
<path fill="#f6f4f0" d="M 276 428 L 276 429 L 279 429 L 279 428 Z"/>
<path fill="#f6f4f0" d="M 209 428 L 209 429 L 212 429 L 212 428 Z"/>
<path fill="#f6f4f0" d="M 247 334 L 247 337 L 248 337 L 248 334 Z"/>
<path fill="#f6f4f0" d="M 359 332 L 359 333 L 361 334 L 361 333 Z"/>
<path fill="#f6f4f0" d="M 185 322 L 185 325 L 186 325 L 186 322 Z"/>
<path fill="#f6f4f0" d="M 267 245 L 267 248 L 268 248 L 268 245 Z"/>
<path fill="#f6f4f0" d="M 164 213 L 164 216 L 165 216 L 165 213 Z"/>
<path fill="#f6f4f0" d="M 281 196 L 281 199 L 282 199 L 282 196 Z"/>
<path fill="#f6f4f0" d="M 359 180 L 358 180 L 357 182 L 358 182 Z"/>
<path fill="#f6f4f0" d="M 288 152 L 288 155 L 289 155 L 289 152 Z"/>
<path fill="#b38b47" d="M 243 292 L 243 295 L 244 295 L 244 292 Z"/>
<path fill="#b38b47" d="M 248 282 L 248 285 L 249 285 L 249 282 Z"/>
<path fill="#b38b47" d="M 206 281 L 206 284 L 207 284 L 207 281 Z"/>
<path fill="#b38b47" d="M 190 202 L 190 203 L 192 204 L 192 203 Z"/>
<path fill="#b38b47" d="M 228 159 L 228 160 L 230 161 L 230 160 Z"/>
<path fill="#8f672e" d="M 225 347 L 224 347 L 223 349 L 224 349 Z"/>
<path fill="#8f672e" d="M 242 322 L 241 322 L 240 325 L 241 325 Z"/>
<path fill="#8f672e" d="M 256 220 L 253 222 L 253 224 L 254 224 L 254 222 L 256 221 Z"/>
<path fill="#8f672e" d="M 194 211 L 195 214 L 196 214 L 195 211 Z"/>
<path fill="#8f672e" d="M 220 208 L 219 208 L 218 210 L 219 210 Z"/>
<path fill="#8f672e" d="M 235 204 L 232 205 L 232 206 L 235 205 Z"/>
<path fill="#8f672e" d="M 225 179 L 225 182 L 226 182 L 226 179 Z"/>
<path fill="#8f672e" d="M 247 146 L 248 149 L 249 149 L 248 146 Z"/>
<path fill="#8f672e" d="M 169 131 L 168 131 L 167 134 L 168 134 Z"/>
<path fill="#a27837" d="M 189 277 L 189 278 L 192 278 L 192 277 Z"/>
<path fill="#a27837" d="M 194 231 L 194 234 L 195 234 L 195 231 Z"/>
<path fill="#a27837" d="M 169 200 L 169 201 L 171 202 L 171 201 Z"/>
<path fill="#a27837" d="M 226 188 L 226 191 L 227 191 L 227 188 Z"/>
<path fill="#7e561f" d="M 195 362 L 194 362 L 193 364 L 194 364 Z"/>
<path fill="#7e561f" d="M 236 327 L 235 327 L 234 330 L 235 330 Z"/>
<path fill="#7e561f" d="M 201 282 L 201 283 L 203 284 L 203 283 Z"/>
<path fill="#7e561f" d="M 189 268 L 189 271 L 190 271 L 190 268 Z"/>
<path fill="#7e561f" d="M 207 266 L 207 269 L 208 269 L 208 266 Z"/>
<path fill="#7e561f" d="M 168 202 L 165 204 L 165 206 L 166 206 L 166 204 L 168 203 Z"/>
<path fill="#7e561f" d="M 163 198 L 163 201 L 164 201 L 164 198 Z"/>
<path fill="#7e561f" d="M 180 196 L 180 197 L 183 197 L 183 196 Z"/>
<path fill="#7e561f" d="M 246 187 L 246 188 L 249 188 L 249 187 Z"/>
<path fill="#7e561f" d="M 277 180 L 276 180 L 275 182 L 276 182 Z"/>
<path fill="#7e561f" d="M 244 145 L 244 148 L 245 148 L 245 145 Z"/>
<path fill="#7e561f" d="M 246 140 L 247 143 L 248 143 L 247 140 Z"/>
<path fill="#c09b56" d="M 170 422 L 170 423 L 173 423 L 173 422 Z"/>
<path fill="#c09b56" d="M 241 328 L 241 331 L 242 331 L 242 328 Z"/>
<path fill="#c09b56" d="M 233 236 L 233 239 L 234 239 L 234 236 Z"/>
<path fill="#c09b56" d="M 232 229 L 232 230 L 234 231 L 234 230 Z"/>
<path fill="#c09b56" d="M 269 210 L 268 210 L 267 212 L 265 212 L 265 213 L 267 213 Z"/>
<path fill="#c09b56" d="M 243 210 L 243 213 L 244 213 L 244 210 Z"/>
<path fill="#c09b56" d="M 190 178 L 190 181 L 191 181 L 191 178 Z"/>
<path fill="#6a4417" d="M 229 338 L 228 338 L 227 341 L 228 341 Z"/>
<path fill="#6a4417" d="M 233 325 L 233 326 L 236 326 L 236 325 Z"/>
<path fill="#6a4417" d="M 187 304 L 187 307 L 188 307 L 188 304 Z"/>
<path fill="#6a4417" d="M 199 280 L 199 283 L 200 283 L 200 280 Z"/>
<path fill="#6a4417" d="M 241 246 L 241 247 L 244 247 L 244 246 Z"/>
<path fill="#6a4417" d="M 196 244 L 196 245 L 199 245 L 199 244 Z"/>
<path fill="#6a4417" d="M 278 161 L 278 162 L 280 163 L 280 162 Z"/>
<path fill="#6a4417" d="M 208 156 L 208 157 L 211 157 L 211 156 Z"/>
<path fill="#6a4417" d="M 215 140 L 214 140 L 213 142 L 214 142 Z"/>
<path fill="#cead6b" d="M 253 421 L 253 422 L 256 422 L 256 421 Z"/>
<path fill="#cead6b" d="M 232 362 L 232 365 L 233 365 L 233 362 Z"/>
<path fill="#cead6b" d="M 199 237 L 199 240 L 200 240 L 200 237 Z"/>
<path fill="#cead6b" d="M 276 187 L 276 190 L 277 190 L 277 187 Z"/>
<path fill="#cead6b" d="M 272 157 L 272 160 L 273 160 L 273 157 Z"/>
<path fill="#090a09" d="M 384 545 L 384 548 L 385 548 L 385 545 Z"/>
<path fill="#090a09" d="M 264 483 L 261 485 L 261 487 L 262 487 L 262 485 L 264 484 Z"/>
<path fill="#090a09" d="M 350 318 L 350 319 L 352 320 L 352 319 Z"/>
<path fill="#090a09" d="M 340 312 L 340 313 L 343 314 L 343 313 Z"/>
<path fill="#090a09" d="M 346 195 L 346 196 L 349 196 L 349 195 Z"/>
<path fill="#090a09" d="M 381 145 L 381 148 L 382 148 L 382 145 Z"/>
<path fill="#532f0d" d="M 198 386 L 198 387 L 201 387 L 201 386 Z"/>
<path fill="#532f0d" d="M 214 325 L 213 325 L 212 327 L 213 327 Z"/>
<path fill="#532f0d" d="M 234 251 L 234 254 L 235 254 L 235 251 Z"/>
<path fill="#532f0d" d="M 248 195 L 248 196 L 250 197 L 250 196 Z"/>
<path fill="#532f0d" d="M 219 142 L 219 143 L 221 144 L 221 143 Z"/>
<path fill="#391b05" d="M 239 231 L 239 234 L 240 234 L 240 231 Z"/>
<path fill="#dabf88" d="M 223 396 L 223 399 L 224 399 L 224 396 Z"/>
<path fill="#dabf88" d="M 196 196 L 195 196 L 194 198 L 195 198 Z"/>
<path fill="#dabf88" d="M 172 171 L 173 174 L 174 174 L 173 171 Z"/>
<path fill="#565751" d="M 212 382 L 212 383 L 215 383 L 215 382 Z"/>
<path fill="#937a4e" d="M 204 384 L 205 387 L 206 387 L 205 384 Z"/>
<path fill="#393e34" d="M 205 404 L 205 405 L 208 405 L 208 404 Z"/>
<path fill="#ead7ab" d="M 222 387 L 222 390 L 223 390 L 223 387 Z"/>
<path fill="#ae986f" d="M 182 275 L 183 278 L 184 278 L 183 275 Z"/>
<path fill="#ae986f" d="M 174 257 L 174 258 L 176 259 L 176 258 Z"/>
</g>
</svg>
